<?xml version="1.0" standalone="no"?>
<!DOCTYPE svg PUBLIC "-//W3C//DTD SVG 20010904//EN"
 "http://www.w3.org/TR/2001/REC-SVG-20010904/DTD/svg10.dtd">
<svg version="1.0" xmlns="http://www.w3.org/2000/svg"
 width="431.000000pt" height="431.000000pt" viewBox="0 0 431.000000 431.000000"
 preserveAspectRatio="xMidYMid meet">
<metadata>
Created by potrace 1.11, written by Peter Selinger 2001-2013
</metadata>
<g transform="translate(0.000000,431.000000) scale(0.100000,-0.100000)"
fill="#000000" stroke="none">
<path d="M1901 3586 c-40 -41 -51 -59 -51 -84 0 -35 -6 -37 -60 -22 -33 10
-36 8 -87 -42 -43 -43 -53 -59 -53 -86 0 -26 -4 -33 -14 -29 -8 3 -31 9 -50
13 l-36 6 0 102 0 103 -99 25 -99 25 -51 -51 -51 -52 0 -232 c0 -166 -3 -232
-11 -232 -7 0 -29 5 -50 11 l-38 12 -3 101 -3 100 -96 25 -96 25 -52 -49 -51
-50 0 -237 0 -237 -47 14 -48 15 -53 -53 -52 -52 2 -200 3 -200 95 -25 95 -25
3 -101 3 -102 57 -15 c31 -9 76 -21 100 -27 40 -10 42 -13 42 -46 0 -27 -4
-35 -14 -31 -8 3 -31 9 -50 13 -34 6 -40 3 -86 -44 l-50 -51 0 -99 0 -100 63
-17 c34 -9 168 -44 297 -79 l235 -62 3 -36 3 -36 -49 13 -50 13 -51 -52 -51
-52 0 -99 0 -100 300 -80 300 -79 0 -101 0 -102 43 -10 c38 -10 281 -74 333
-89 33 -9 124 89 124 133 0 31 2 33 28 27 15 -4 36 -10 48 -14 31 -12 122 82
126 131 l3 36 48 -14 47 -14 0 -99 0 -99 43 -11 c23 -7 67 -19 98 -27 l56 -15
52 52 51 53 0 134 c0 73 1 133 3 133 1 0 22 -6 47 -14 l45 -13 3 -100 3 -100
97 -26 97 -27 53 53 52 52 -2 200 -3 200 -95 25 -95 25 -3 133 c-3 145 -5 140
61 121 l37 -10 0 -99 0 -99 53 -15 c83 -23 131 -36 139 -36 4 0 30 23 58 51
l50 50 0 199 0 199 -42 11 c-24 6 -69 18 -100 27 l-58 16 0 101 0 101 -78 19
c-134 33 -122 16 -122 167 l0 131 38 -7 c20 -5 44 -8 52 -9 13 0 14 -17 12
-103 l-3 -102 53 -15 c29 -8 74 -20 100 -27 l46 -11 51 51 51 51 0 99 c0 86
-2 100 -17 105 -74 22 -175 46 -181 42 -4 -2 -7 44 -7 102 l0 106 -155 42
c-85 23 -174 47 -197 53 -40 11 -43 14 -43 47 0 32 1 34 28 28 15 -4 36 -10
48 -15 17 -6 31 2 73 45 l51 52 0 100 0 101 -157 42 c-87 23 -222 58 -300 79
l-142 39 -50 -52 c-42 -42 -51 -58 -51 -87 l0 -35 -150 40 -150 40 0 34 c0 36
5 38 59 22 37 -11 38 -10 89 41 l52 52 0 98 0 99 -52 14 c-29 9 -98 27 -153
42 -55 15 -121 33 -147 40 l-46 12 -51 -51z m-888 -1027 c34 -9 37 -13 37 -46
0 -26 -4 -34 -14 -30 -8 3 -31 9 -50 13 -33 6 -36 9 -36 40 0 37 5 39 63 23z
m2317 -123 c0 -2 -8 -10 -17 -17 -16 -13 -17 -12 -4 4 13 16 21 21 21 13z
m-1322 -1345 c39 -11 42 -14 42 -45 l0 -34 -42 10 c-24 6 -48 11 -53 11 -6 0
-9 17 -7 39 2 21 7 36 11 34 3 -2 25 -9 49 -15z"/>
</g>
</svg>
